<svg width="110" height="32" viewBox="0 0 110 32" fill="none" xmlns="http://www.w3.org/2000/svg">
<g clip-path="url(#clip0_26424_4687)">
<mask id="mask0_26424_4687" style="mask-type:luminance" maskUnits="userSpaceOnUse" x="0" y="0" width="110" height="32">
<path d="M109.091 0H0V32H109.091V0Z" fill="white"/>
</mask>
<g mask="url(#mask0_26424_4687)">
<path fill-rule="evenodd" clip-rule="evenodd" d="M21.8268 4.1779L21.7434 4.12786C21.0927 3.79426 20.1584 4.3447 19.1908 5.56233C18.7903 6.07941 18.4065 6.66321 18.1396 7.21364C17.906 7.664 17.7726 8.04764 17.7726 8.13105V8.16444C17.7726 8.21447 17.7892 8.26451 17.7892 8.31455L17.8226 8.6648C17.9394 9.59891 18.2064 10.5663 18.8904 12.1676L18.9905 12.3844L19.0906 12.6012C19.2908 13.0516 18.6735 13.3852 18.4065 12.9849L17.9394 12.2676C17.1887 11.1167 16.7882 10.3995 16.2877 9.28196L16.271 9.23193C15.6537 7.78073 14.8028 4.37806 14.6193 2.20967L14.6025 2.09291C14.4524 0.491639 14.1354 -0.0754786 13.3179 0.00792087C12.5671 0.0746407 11.7996 0.691797 11.3158 1.64255C10.7652 2.71007 10.6484 4.02778 11.0488 5.37885V5.39553L11.1656 5.89593C11.1823 5.99601 11.2156 6.11277 11.249 6.22953L11.2991 6.46305L11.3992 6.89673L11.516 7.41382L11.5493 7.56393C11.8831 9.08182 12.4836 10.6998 12.7506 10.8665C12.8007 10.8999 12.9175 10.95 13.1177 11L13.2011 11.0167L13.468 11.0834L13.7016 11.1335C14.6359 11.3503 15.2032 11.6338 15.9707 12.2844C16.2876 12.5512 16.0041 13.0849 15.6036 12.9348C14.1187 12.4011 12.5337 12.251 10.9988 12.5012C10.8152 12.5345 10.6317 12.5679 10.4649 12.6012L10.3647 12.618L10.0811 12.6847C8.57956 13.0683 7.19473 13.8189 6.0602 14.853L5.55967 15.3034C5.14257 15.6703 4.7922 15.9706 4.32504 16.3209L4.1582 16.4543C4.00804 16.5711 3.84119 16.6711 3.64098 16.7712L3.49082 16.8546L3.12377 17.0381C2.43971 17.3884 2.28956 17.5719 2.40634 17.9222C2.65661 18.7561 3.70772 19.5401 4.99241 19.9071C6.02684 20.2073 7.04457 20.1406 8.12909 19.7903C8.59622 19.6401 9.06335 19.3567 9.68073 18.8729L10.0144 18.606C10.0811 18.556 10.1312 18.5226 10.1812 18.4892C10.1979 18.4726 10.2146 18.4726 10.2313 18.4559L10.4481 18.3559L10.7985 18.189C10.8986 18.139 10.982 18.1056 11.0488 18.0889C11.9497 17.7553 12.9341 17.7553 13.8518 18.0723L13.9519 18.1056C14.0687 18.1556 14.1688 18.189 14.2855 18.2558C16.4044 19.2899 17.3054 21.8586 16.3044 24.0103C16.1709 24.3105 15.9873 24.5941 15.7871 24.8443L15.7204 24.9111L15.6871 24.9611L15.637 25.0278L15.5869 25.0778L15.5369 25.1279L15.4701 25.1946L15.3867 25.278L15.3033 25.3614L15.2366 25.4281L15.1698 25.4948L15.0864 25.5615L15.0364 25.6116L14.9362 25.695L14.8528 25.7617L14.7694 25.8118L14.686 25.8618L14.6193 25.9119L14.5191 25.9619L14.4524 25.9952L14.3523 26.0452L14.2522 26.0953L14.1521 26.1454L14.0687 26.1787L13.9852 26.2121L13.9018 26.2455L13.8351 26.2621L13.785 26.2788L13.7016 26.3121L13.6348 26.3288L13.5514 26.3455L13.468 26.3622L13.418 26.3788L13.3679 26.3956L13.3179 26.4122L13.2345 26.4289L13.1177 26.4456L13.0509 26.4623L12.9675 26.479L12.834 26.4956H12.7673H12.6672H12.5838H12.4836H12.3668H12.2668L12.1333 26.479L12.0332 26.4623L11.9164 26.4456L11.8163 26.4289L11.7161 26.4122L11.6161 26.3956L11.5327 26.3788L11.4826 26.3622L11.4159 26.3455L11.3324 26.3288L11.2824 26.3121L11.1656 26.2788L11.0655 26.2455L10.982 26.2121L10.882 26.1787L10.8152 26.1454L10.7652 26.1287L10.6817 26.0953L10.5983 26.062L10.5316 26.0286L10.4815 25.9952L10.4148 25.9619L10.3481 25.9119L10.2813 25.8618L10.1979 25.8118L10.1145 25.745L10.0644 25.695L10.0144 25.6449L9.94764 25.5949L9.8976 25.5449L9.81418 25.4782L9.71404 25.3948L9.61396 25.3113L9.5472 25.2447L9.46378 25.1612L9.38036 25.0778L9.26356 24.9611L9.13011 24.811L8.61287 24.2772C7.54509 23.1763 6.77763 22.5258 5.7432 21.9753L5.6431 21.9253L5.50962 21.8586L5.35946 21.7752C4.32504 21.2748 3.47414 21.058 2.68998 21.158L2.60655 21.1748C1.22176 21.3916 -0.079616 22.3757 0.00380537 22.8928C0.0705425 23.3431 0.470965 23.6601 1.30518 23.9937L1.43865 24.0437L1.90581 24.2105C2.32292 24.3606 2.5565 24.4774 2.74003 24.6441C2.79008 24.6942 2.84014 24.7276 2.89019 24.7776C3.04035 24.9277 3.17382 25.1112 3.30729 25.3113C3.42409 25.4948 3.54087 25.7116 3.65767 25.9619L3.67435 25.9785C3.74108 26.1454 3.80783 26.2955 3.89124 26.4456L3.94129 26.529L4.00804 26.6624L4.09145 26.8126L4.1582 26.9293L4.24161 27.0628L4.32504 27.2129L4.40846 27.3463L4.47519 27.4631L4.55862 27.5965L4.64204 27.7132L4.72546 27.8467L4.80888 27.9801L4.89231 28.0802L4.99241 28.2137L5.07583 28.3304L5.1092 28.3804L5.17593 28.4639L5.25936 28.5639L5.35946 28.6807L5.45957 28.7808L5.55967 28.8975L5.67647 29.0143L5.77657 29.1144L5.89336 29.2311L5.99347 29.3312L6.11025 29.448L6.22705 29.5481L6.2771 29.5981L6.36052 29.6648L6.47731 29.7649L6.57742 29.8483L6.64415 29.8983L6.71089 29.9484L6.82768 30.0484L6.87773 30.0818L6.96116 30.1485L7.07794 30.2319L7.21142 30.3153L7.26147 30.3487L7.32822 30.3988L7.4784 30.4988L7.61185 30.5822L7.72865 30.6489L7.79535 30.6823L7.87876 30.7324L7.99556 30.7991L8.14575 30.8825L8.19578 30.9158L8.36262 30.9992L8.49615 31.0659L8.57956 31.0993L8.71302 31.166L8.76305 31.1827L8.8632 31.2161L9.03004 31.2828L9.16349 31.3328L9.28029 31.3828L9.41375 31.4329L9.49716 31.4663C9.76415 31.5329 10.0144 31.6164 10.2813 31.6664C10.8319 31.7999 11.3491 31.8833 11.8497 31.9333H11.9164L12.0665 31.95H12.1666H12.2668H12.4169H12.5671H12.7006H12.8507H12.9175L13.0843 31.9333H13.1511L13.2845 31.9166L13.468 31.8999L13.6015 31.8833L13.7016 31.8665L13.8017 31.8499L13.9352 31.8332H13.9686C14.0019 31.8332 14.0186 31.8332 14.052 31.8332H14.0687H14.102C18.0729 31.1827 21.1761 28.0636 21.9436 24.1104L21.9604 23.9937L21.9937 23.7601C22.0104 23.61 22.0438 23.4599 22.0438 23.3265C22.0771 23.0095 22.0938 22.6926 22.0938 22.359C22.0938 22.2423 22.0938 22.1422 22.1105 22.0087V21.9253C22.1105 21.842 22.1105 21.7585 22.1105 21.6585V8.89833C22.1105 8.3312 22.1605 7.83084 22.2773 7.34705C22.294 7.28036 22.3107 7.19697 22.3274 7.13025L22.3941 6.89673L22.4441 6.69657L22.5276 6.39633C22.8112 5.06193 22.7111 4.64494 21.8268 4.1779ZM88.3636 6.07941H87.2793C85.1607 6.07941 83.4422 7.79745 83.4422 9.91578V31.6664C83.4422 31.8499 83.592 32 83.7753 32H88.3636C88.5476 32 88.6975 31.8499 88.6975 31.6664V6.41301C88.6975 6.22953 88.5476 6.07941 88.3636 6.07941ZM108.752 20.4241C108.735 20.2907 108.702 20.1572 108.668 20.0238C108.652 19.9404 108.635 19.8737 108.618 19.7903C108.585 19.6401 108.535 19.49 108.502 19.3399V19.3233V19.3066C108.268 18.506 107.918 17.7553 107.5 17.0548C107.351 16.8213 107.201 16.5878 107.05 16.3543C107.05 16.3375 107.033 16.3375 107.033 16.3209C105.265 13.919 102.445 12.3511 99.2589 12.3511C93.92 12.3511 89.5818 16.7545 89.5818 22.1756C89.5818 22.5925 89.6153 23.0262 89.6655 23.4265V23.4432C89.6822 23.5933 89.7149 23.8268 89.7484 23.9769L89.7651 24.077C89.9825 25.1946 90.3993 26.2621 90.9498 27.2129C91.1164 27.4797 91.2836 27.7466 91.4669 27.9968C91.4669 27.9968 91.4669 28.0135 91.4836 28.0135C91.4836 28.0135 91.4836 28.0302 91.5004 28.0302C93.2691 30.4321 96.0887 32 99.2756 32C100.593 32 101.844 31.7331 102.996 31.2494C105.098 30.3654 105.465 27.5465 103.68 26.1287L102.913 25.5282C102.779 25.4281 102.596 25.4281 102.479 25.5449C101.644 26.3455 100.527 26.8459 99.2924 26.8459C98.4247 26.8459 97.6073 26.5957 96.9062 26.1787C96.7891 26.112 96.7229 25.9619 96.7229 25.8284C96.7396 25.6783 96.8226 25.5615 96.9564 25.5115L108.652 20.7244C108.702 20.6743 108.769 20.5409 108.752 20.4241ZM101.561 18.8729L95.288 21.4416C95.1207 21.5084 94.9375 21.4583 94.8371 21.3081C94.7709 21.2081 94.7542 21.0913 94.7869 20.9745C95.3215 18.9897 97.1062 17.5218 99.2255 17.5218C100.093 17.5218 100.911 17.772 101.611 18.189C101.728 18.2558 101.795 18.4059 101.795 18.5393C101.778 18.6895 101.678 18.8062 101.561 18.8729ZM42.1984 21.9921C42.1984 16.5711 37.8604 12.1676 32.5215 12.1676C27.1825 12.1676 22.8446 16.5544 22.8446 21.9921C22.8446 27.413 27.1825 31.8165 32.5215 31.8165C33.973 31.8165 35.3578 31.4996 36.5924 30.9158L37.1263 30.6656V31.4829C37.1263 31.6664 37.2765 31.8165 37.4601 31.8165H39.1952C40.847 31.8165 42.1984 30.4655 42.1984 28.8141V22.4758V22.0921C42.1984 22.0588 42.1984 22.0254 42.1984 21.9921ZM32.5215 26.6624C29.9855 26.6624 27.9167 24.5775 27.9167 21.9921C27.9167 19.4067 29.9855 17.3217 32.5215 17.3217C35.0575 17.3217 37.1263 19.4067 37.1263 21.9921C37.1263 24.5775 35.0575 26.6624 32.5215 26.6624ZM61.6689 18.139C61.1684 16.9214 60.4844 15.8872 59.6001 15.0199C58.7159 14.1525 57.6981 13.4686 56.5135 12.9849C55.3456 12.5012 54.0943 12.2676 52.7596 12.2676C51.6584 12.2676 50.6073 12.4345 49.6062 12.7681C48.8054 13.0683 47.821 13.5186 46.8867 14.2025C46.7532 14.3026 46.5697 14.3193 46.4362 14.2192C46.2694 14.1025 46.2193 13.8689 46.3361 13.6855C47.0201 12.6513 47.7376 11.9674 48.3382 11.5171V6.41301C48.3382 6.22953 48.1881 6.07941 48.0045 6.07941H46.92C44.8012 6.07941 43.0826 7.79745 43.0826 9.91578V21.475C43.0826 21.525 43.0826 21.5751 43.0826 21.6251C43.0826 21.6251 43.0826 21.6251 43.0826 21.6417V21.6585C43.0826 21.7085 43.0826 21.7752 43.0826 21.8252V21.9587V22.0754C43.0826 23.5266 43.3329 24.8443 43.8335 26.062C44.3506 27.2463 45.0514 28.2804 45.9356 29.1477C46.8199 30.0151 47.8377 30.699 49.0223 31.1827C50.1902 31.6664 51.4415 31.8999 52.7762 31.8999C54.111 31.8999 55.3623 31.6664 56.5302 31.1827C57.6981 30.699 58.7325 30.0318 59.6168 29.1477C60.501 28.2804 61.1851 27.2463 61.6856 26.062C62.2028 24.8443 62.4698 23.5266 62.4698 22.0754C62.4364 20.6577 62.1862 19.3399 61.6689 18.139ZM57.1141 23.9769C56.8806 24.5607 56.5468 25.0778 56.0964 25.5282C55.6793 25.9452 55.1788 26.2955 54.5948 26.5457C54.5948 26.5457 54.5948 26.5457 54.5781 26.5457C53.9942 26.7792 53.3769 26.8959 52.7428 26.8959C52.0921 26.8959 51.4748 26.7792 50.9076 26.5457C50.3403 26.2955 49.8231 25.9452 49.3893 25.5282L49.3727 25.5115C49.2391 25.3614 49.1057 25.2113 48.9889 25.0445C48.7553 24.7109 48.5384 24.3606 48.3716 23.9603V23.9436C48.138 23.3598 48.0212 22.726 48.0212 22.0754C48.0212 21.4249 48.138 20.7911 48.3716 20.2073C48.6218 19.6235 48.9555 19.1231 49.3727 18.6895C49.7063 18.3559 50.09 18.0723 50.4905 17.8554C50.6239 17.7887 50.7575 17.722 50.9076 17.6719C51.4915 17.4051 52.1089 17.2883 52.7596 17.2883C53.4103 17.2883 54.0276 17.4217 54.6115 17.6719C55.1954 17.9055 55.696 18.2558 56.1131 18.7061C56.5468 19.1231 56.8972 19.6402 57.1141 20.224C57.3644 20.8078 57.4979 21.4416 57.4979 22.1088C57.4979 22.7593 57.3811 23.3765 57.1141 23.9769ZM81.7738 18.139C81.2727 16.9214 80.5891 15.8872 79.7047 15.0199C78.8204 14.1525 77.8029 13.4686 76.6182 12.9849C75.4502 12.5012 74.1986 12.2676 72.864 12.2676C71.7629 12.2676 70.6951 12.4345 69.7108 12.7681C68.91 13.0683 67.9255 13.5186 66.9913 14.2025C66.8577 14.3026 66.6743 14.3193 66.5407 14.2192C66.3572 14.1025 66.3239 13.8689 66.4407 13.6855C67.1247 12.6513 67.8421 11.9674 68.4428 11.5171V6.41301C68.4428 6.22953 68.2926 6.07941 68.1091 6.07941H67.0246C64.9057 6.07941 63.1872 7.79745 63.1872 9.91578V21.475C63.1872 21.5084 63.1872 21.525 63.1872 21.5584V21.6251C63.1872 21.6417 63.1872 21.6417 63.1872 21.6585C63.1872 21.7252 63.1872 21.7752 63.1872 21.842C63.1872 21.9253 63.1872 22.0087 63.1872 22.0921C63.1872 23.5433 63.4375 24.861 63.938 26.0786C64.4552 27.2629 65.156 28.2971 66.0402 29.1644C66.9245 30.0318 67.9423 30.7156 69.1268 31.1993C70.2948 31.6831 71.546 31.9166 72.8807 31.9166C74.2153 31.9166 75.4669 31.6831 76.6349 31.1993C77.8029 30.7156 78.8371 30.0484 79.7215 29.1644C80.6058 28.2971 81.2895 27.2629 81.7905 26.0786C82.3076 24.861 82.5745 23.5433 82.5745 22.0921C82.5411 20.6577 82.2909 19.3399 81.7738 18.139ZM77.2189 23.9769C76.9855 24.5607 76.6516 25.0778 76.2007 25.5282C75.784 25.9452 75.2836 26.2955 74.6996 26.5457C74.1156 26.7792 73.4982 26.8959 72.864 26.8959C72.2134 26.8959 71.5961 26.7792 71.0288 26.5457C70.4616 26.2955 69.9444 25.9452 69.5106 25.5282L69.4939 25.5115C69.0768 25.0612 68.7431 24.5441 68.4928 23.9603V23.9436C68.2593 23.3598 68.1425 22.726 68.1425 22.0754C68.1425 21.4249 68.2593 20.7911 68.4928 20.2073C68.7431 19.6235 69.0768 19.1231 69.4939 18.6895C69.9444 18.2391 70.4449 17.9055 71.0288 17.6553C71.6128 17.3884 72.2301 17.2716 72.8807 17.2716C73.5316 17.2716 74.1491 17.4051 74.7331 17.6553C75.3164 17.8888 75.8175 18.2391 76.2342 18.6895C76.6684 19.1064 77.0182 19.6235 77.2356 20.2073C77.4858 20.7911 77.6189 21.4249 77.6189 22.0921C77.6022 22.7593 77.4858 23.3765 77.2189 23.9769Z" fill="black"/>
</g>
</g>
<defs>
<clipPath id="clip0_26424_4687">
<rect width="109.091" height="32" fill="white"/>
</clipPath>
</defs>
</svg>
