<svg width="100" height="32" viewBox="0 0 100 32" fill="none" xmlns="http://www.w3.org/2000/svg">
<g clip-path="url(#clip0_26424_4759)">
<path d="M15.0009 6L11.5 18.9559L7.60251 6H0L7.37004 26H15.5117L21.9318 6H15.0009ZM41.5943 6V26H58.5838V20.3325H47.5902V18.4433H58.4408V13.2551H47.5902V11.4908H58.5838V6H41.5943ZM91.6098 13.2551H86.9236C86.4193 13.2551 86.0102 13.0026 86.0102 12.3725C86.0102 11.7425 86.4193 11.4908 86.9236 11.4908H91.3686C91.8728 11.4908 92.0885 11.7425 92.0885 12.3725H98.6596C98.6596 8.26669 95.9737 6 91.1539 6H86.921C81.6214 6 79.5114 7.81328 79.5114 12.3725C79.5114 16.3526 81.861 18.4433 86.346 18.4433H91.536C92.0397 18.4433 92.4488 18.7209 92.4488 19.3749C92.4488 20.0301 92.0636 20.3325 91.5594 20.3325H86.8253C86.3211 20.3325 86.1054 20.055 86.1054 19.3749H79.5826C79.5826 24.1108 81.6936 26 86.9927 26H90.697C96.5736 26 99.1337 24.1108 99.1337 19.3749C99.1337 15.345 96.4052 13.2551 91.6098 13.2551ZM22.9468 6V26H39.9618V20.3325H28.9418V18.4433H39.8167V13.2551H28.9418V11.4908H39.961V6H22.9468ZM78.4785 12.3474C78.4785 7.81419 76.512 6 71.6184 6H60.2171V26H66.26V18.4433H71.6194C76.512 18.4433 78.4785 16.705 78.4785 12.3474ZM72.5302 12.3474C72.5302 13.0026 72.1221 13.2551 71.6179 13.2551H66.26V11.4917H71.6184C72.1221 11.4917 72.5302 11.7425 72.5302 12.3474Z" fill="black"/>
</g>
<defs>
<clipPath id="clip0_26424_4759">
<rect width="99.13" height="32.0001" fill="white" transform="translate(0.179688)"/>
</clipPath>
</defs>
</svg>
