<svg width="77" height="32" viewBox="0 0 77 32" fill="none" xmlns="http://www.w3.org/2000/svg">
<g clip-path="url(#clip0_26424_4778)">
<path d="M24.6132 10.0225L15.6761 31.677H9.33742L0.439453 10.0225H6.77817L12.6443 24.7541L18.7075 10.0225H24.6132ZM38.5887 31.999C36.3577 31.999 34.3563 31.5228 32.5845 30.5702C30.8663 29.6683 29.428 28.2945 28.4312 26.6031C27.434 24.9134 26.9354 22.9952 26.9354 20.8486C26.9354 18.7021 27.4343 16.7837 28.432 15.0935C29.4292 13.4029 30.8674 12.0298 32.5853 11.1283C34.357 10.1756 36.3584 9.69936 38.5897 9.69956C40.821 9.69977 42.8157 10.176 44.574 11.1283C46.284 12.0342 47.7149 13.4067 48.7082 15.0935C49.7055 16.7839 50.2042 18.7025 50.2042 20.8493C50.2042 22.9961 49.7055 24.9148 48.7082 26.6053C47.7152 28.2928 46.2844 29.666 44.5743 30.5724C42.8156 31.5235 40.8198 31.999 38.5887 31.999ZM38.5887 26.847C40.1636 26.847 41.4563 26.3037 42.4667 25.2169C43.4773 24.13 43.9826 22.6742 43.9826 20.8496C43.9826 19.0247 43.4773 17.5687 42.4667 16.4817C41.4563 15.3948 40.1636 14.8516 38.5887 14.8525C37.014 14.8525 35.7147 15.3958 34.691 16.4827C33.6675 17.5695 33.1556 19.0255 33.1556 20.8506C33.1556 22.6754 33.6675 24.1311 34.691 25.2177C35.7147 26.3043 37.0133 26.8475 38.5887 26.847ZM56.2662 10.0225H62.4078V31.677H56.2671L56.2662 10.0225ZM59.3371 7.0038C58.2088 7.0038 57.2902 6.66834 56.5812 5.99745C56.2389 5.68419 55.9669 5.29908 55.7835 4.86844C55.6003 4.43778 55.5101 3.97175 55.5192 3.50221C55.5101 3.03253 55.6005 2.5664 55.7839 2.13569C55.9673 1.70498 56.2396 1.31986 56.582 1.00665C57.2908 0.335551 58.2095 0 59.3381 0C60.4666 0 61.3853 0.322017 62.0941 0.966051C62.4347 1.26333 62.7067 1.63407 62.8905 2.05164C63.0743 2.46921 63.1653 2.92321 63.157 3.38102C63.1702 3.86611 63.0822 4.34851 62.8989 4.79616C62.7157 5.24381 62.4413 5.64644 62.0941 5.9773C61.3853 6.66205 60.4666 7.00442 59.3381 7.00442L59.3371 7.0038ZM72.409 31.999C71.9049 32.0108 71.4038 31.9169 70.9366 31.7231C70.4694 31.5293 70.0459 31.2397 69.6924 30.8721C69.3302 30.5043 69.0454 30.0645 68.8556 29.5801C68.666 29.0955 68.5753 28.5763 68.5893 28.0545C68.5893 26.901 68.9566 25.9685 69.6915 25.2571C70.4369 24.5705 71.4047 24.1904 72.4081 24.1904C73.4115 24.1904 74.3793 24.5705 75.1247 25.2571C75.8607 25.9681 76.2287 26.9006 76.2287 28.0545C76.2428 28.5762 76.1524 29.0954 75.9627 29.5799C75.7732 30.0644 75.4886 30.5042 75.1266 30.8721C74.7731 31.2396 74.3498 31.5291 73.8827 31.7229C73.4157 31.9167 72.9147 32.0107 72.4108 31.999H72.409Z" fill="black"/>
</g>
<defs>
<clipPath id="clip0_26424_4778">
<rect width="76" height="32" fill="white" transform="translate(0.30957)"/>
</clipPath>
</defs>
</svg>
